<svg xmlns="http://www.w3.org/2000/svg" viewBox="0 0 1765 591"><path d="M122 310.989V521h90.992l.254-123.25.254-123.25 61.351 100.769 61.352 100.769 22.081-.269 22.082-.269 61.567-103.581 61.567-103.58.254 126.33.254 126.331H595v-63.75c-.001-35.062-.3-129.562-.666-210L593.669 101h-79.207l-76.481 129.136c-42.065 71.025-76.931 129.735-77.481 130.466-.741.985-21.345-32.38-79.591-128.886L202.317 101.5l-40.158-.261-40.159-.262v210.012M695 311v210h97V101h-97v210m197 0v210h96V368l55.5-.125c30.525-.069 55.95-.238 56.5-.375.55-.137 19.45-.306 42-.375l41-.125v-77.303l-97 .731-97 .731V179h219l.002-14.25c.001-7.838.298-25.387.66-39l.658-24.75H892v210m497.049-207.25c-1.953 4.221-182.06 408.163-184.145 413l-1.833 4.25 49.715-.026 49.714-.026 18.5-44.969 18.5-44.968 97.606-.006 97.605-.005 18.497 44.75 18.497 44.75 50.647.259c27.857.143 50.648-.013 50.648-.345 0-.333-2.652-6.525-5.894-13.76-3.242-7.235-44.817-100.229-92.389-206.654-47.573-106.425-87.068-194.737-87.767-196.25l-1.271-2.75h-95.358l-1.272 2.75m46.22 96.869c-5.974 13.95-63.592 153.137-64.011 154.631-.464 1.654 3.166 1.75 66.232 1.75 52.991 0 66.616-.257 66.202-1.25-7.49-17.925-65.127-156.808-65.625-158.131-.574-1.524-1.105-.954-2.798 3" fill-rule="evenodd"/></svg>